<?xml version="1.0" standalone="no"?>
<!DOCTYPE svg PUBLIC "-//W3C//DTD SVG 20010904//EN"
 "http://www.w3.org/TR/2001/REC-SVG-20010904/DTD/svg10.dtd">
<svg version="1.0" xmlns="http://www.w3.org/2000/svg"
 width="260.000000pt" height="260.000000pt" viewBox="0 0 260.000000 260.000000"
 preserveAspectRatio="xMidYMid meet">
<metadata>
Created by potrace 1.11, written by Peter Selinger 2001-2013
</metadata>
<g transform="translate(0.000000,260.000000) scale(0.100000,-0.100000)"
fill="#000000" stroke="none">
<path d="M498 1880 c-133 -24 -224 -81 -270 -169 -39 -74 -40 -183 -2 -259 44
-89 104 -128 329 -216 206 -79 240 -108 240 -201 0 -101 -64 -148 -209 -154
-112 -4 -188 12 -280 59 l-72 37 -43 -65 -44 -66 24 -19 c102 -82 324 -132
490 -108 120 17 185 45 251 111 63 63 88 124 88 215 0 171 -96 267 -362 360
-109 39 -198 86 -222 118 -30 40 -27 109 5 143 44 47 77 58 174 58 96 0 134
-9 233 -57 34 -16 64 -28 66 -26 1 2 21 32 44 66 46 68 47 66 -33 106 -118 59
-294 88 -407 67z"/>
<path d="M1550 1295 l0 -565 95 0 95 0 2 286 3 287 240 -284 241 -284 123 -3
c67 -1 121 1 119 6 -1 4 -113 135 -248 291 -135 155 -246 286 -248 291 -2 4
100 120 225 257 125 137 234 257 242 266 12 16 5 17 -100 17 l-114 0 -240
-267 -240 -267 -3 267 -2 267 -95 0 -95 0 0 -565z"/>
<path d="M1193 945 c-47 -20 -75 -70 -70 -123 8 -77 81 -126 152 -102 109 36
115 182 9 226 -41 17 -50 17 -91 -1z"/>
</g>
</svg>
